<svg width="100" height="98" viewBox="0 0 100 98" fill="none" xmlns="http://www.w3.org/2000/svg">
<path fill-rule="evenodd" clip-rule="evenodd" d="M46.8139 0.80855C45.0252 2.03997 44.1742 4.45917 44.7765 6.60274C45.8726 10.5057 50.9441 11.8229 53.8556 8.96147C55.0627 7.77517 55.33 7.09402 55.33 5.20526C55.33 1.99783 53.3547 0 50.1844 0C48.9703 0 47.4631 0.361394 46.8139 0.80855ZM29.3497 4.14338C28.9351 5.119 28.5956 6.31472 28.5961 6.80054C28.5971 8.80382 31.6953 14.016 34.5115 16.7525L37.423 19.5817L37.5688 15.5419C37.6833 12.3672 37.4669 10.7823 36.5599 8.143C35.3584 4.64705 34.111 3.30608 31.4935 2.69434C30.2536 2.40483 30.0221 2.56148 29.3497 4.14338ZM66.8526 3.27634C65.4241 3.86428 64.7739 4.57022 63.9688 6.40941C62.5549 9.63964 61.708 15.127 62.2467 17.5715L62.678 19.5271L65.5098 16.7441C67.1754 15.1071 69.0196 12.6071 69.9876 10.6747C71.6063 7.44401 71.6214 7.34982 70.8981 5.06001C70.0708 2.443 69.4953 2.18918 66.8526 3.27634ZM39.9623 8.67543C40.1963 9.22074 40.4203 12.1763 40.4601 15.2435C40.4995 18.3101 40.6614 20.9464 40.8193 21.1021C40.9777 21.2573 42.1822 21.7024 43.4968 22.0911L45.8867 22.798L45.6093 20.1984C45.2244 16.5914 43.5654 12.5556 41.3812 9.91477C40.3668 8.68782 39.7282 8.13012 39.9623 8.67543ZM58.6376 9.67434C56.6521 12.2319 54.9356 16.2151 54.4216 19.4577C53.9913 22.1694 54.0211 22.3063 55.0279 22.2706C55.6105 22.2497 56.8701 21.9548 57.8269 21.6147L59.5677 20.997L59.4593 16.3232C59.3997 13.7528 59.5576 10.8135 59.8098 9.79084C60.0615 8.76863 60.2053 7.93182 60.1286 7.93182C60.0525 7.93182 59.3811 8.71608 58.6376 9.67434ZM16.5963 12.9651C12.8127 14.0096 11.8583 19.2188 14.9529 21.9364C19.24 25.7016 25.7426 21.0629 23.5317 15.817C22.4658 13.2888 19.638 12.1258 16.5963 12.9651ZM79.2902 13.0746C77.2881 13.9397 76.528 14.9098 76.1744 17.0504C75.793 19.3616 76.7988 21.6747 78.5794 22.5794C83.4946 25.0774 88.7017 20.5518 86.399 15.7833C85.0815 13.0543 82.0282 11.8908 79.2902 13.0746ZM27.8556 15.1235C28.0574 16.4848 28.6662 18.7771 29.208 20.2172C30.2234 22.915 33.0042 26.9325 33.894 26.987C34.1705 27.0039 34.9443 25.9316 35.6136 24.604C36.7042 22.4416 36.7466 22.1442 36.0187 21.7436C34.1977 20.7422 31.8244 18.4375 29.7179 15.6252L27.4884 12.6488L27.8556 15.1235ZM70.207 15.653C68.6746 17.8392 65.9002 20.5112 63.4412 22.1684C63.1017 22.3975 65.5492 27.2656 66.0042 27.2656C66.7371 27.2656 69.9018 22.6245 70.7367 20.3253C71.4035 18.4896 72.5264 12.8892 72.2277 12.8892C72.1813 12.8892 71.2719 14.133 70.207 15.653ZM37.7746 26.7357L36.1851 29.7156L38.3173 30.9391C40.1953 32.0163 42.9187 33.2145 43.4887 33.2145C43.7369 33.2145 45.746 26.875 45.746 26.0912C45.746 25.7754 44.6675 25.2609 43.35 24.9476C42.0324 24.6342 40.5963 24.2377 40.159 24.0666C39.5668 23.8351 38.958 24.5163 37.7746 26.7357ZM58.1044 24.5569C57.2721 24.9317 56.0806 25.248 55.4562 25.2604C54.0942 25.2871 54.0206 26.112 55.0758 29.5302C56.1845 33.1213 56.4075 33.3523 58.1462 32.7074C58.9553 32.4074 60.574 31.6133 61.7423 30.943L63.8674 29.7245L62.2467 26.7684C61.3559 25.1424 60.3995 23.8262 60.1221 23.844C59.8446 23.8614 58.9367 24.1826 58.1044 24.5569ZM48.4971 27.1417C48.3352 27.8917 47.7929 29.668 47.2915 31.0888C46.7907 32.5101 46.5026 33.793 46.6519 33.9393C46.8007 34.086 48.3872 34.206 50.1763 34.206C53.3118 34.206 53.4183 34.1653 53.1005 33.0906C52.9189 32.4773 52.4059 30.5811 51.9605 28.8768C51.2568 26.1869 50.994 25.7784 49.9705 25.7784C49.0923 25.7784 48.7165 26.1259 48.4971 27.1417ZM16.1076 28.9809C17.3646 29.9238 19.4317 31.8621 20.7008 33.2884L23.0081 35.8806L25.5499 34.7106C26.9476 34.0672 28.0912 33.3617 28.0912 33.1431C28.0912 32.924 26.8997 31.9528 25.4429 30.9847C22.7362 29.1851 17.3994 27.2656 15.1027 27.2656C13.9254 27.2656 14.0061 27.4039 16.1076 28.9809ZM80.2244 28.2873C77.221 29.2233 72.4714 32.0019 72.1238 33.0271C72.03 33.3037 73.1165 34.0657 74.5385 34.7206C77.0959 35.8974 77.1323 35.8999 77.848 34.9342C79.2186 33.0856 82.3213 30.0636 84.284 28.6661L86.2512 27.2656L84.7884 27.2934C83.9838 27.3088 81.9298 27.7559 80.2244 28.2873ZM4.67328 28.5441C3.58423 28.9358 2.6006 29.3477 2.48761 29.4593C2.37412 29.5708 2.72318 30.6436 3.26342 31.8438C4.08714 33.6745 4.67025 34.2055 6.88821 35.1429C8.34195 35.7576 10.9155 36.4794 12.6069 36.7471C15.6748 37.233 19.516 36.938 19.516 36.2172C19.516 35.2535 13.6732 30.5568 10.8298 29.2347C7.24281 27.567 7.35228 27.5794 4.67328 28.5441ZM88.8061 29.4737C85.7624 30.9698 80.5512 35.2322 80.5512 36.2251C80.5512 36.9543 84.1387 37.1903 87.4109 36.6767C92.5621 35.8682 95.4413 34.4776 96.4724 32.3008C96.9445 31.3039 97.4303 30.3169 97.5518 30.1072C97.7748 29.7225 93.8897 27.7921 92.8511 27.7723C92.5419 27.7663 90.7214 28.5317 88.8061 29.4737ZM33.4552 32.6454C32.6617 33.5075 32.7157 33.7281 34.3874 36.4566C35.3634 38.0494 36.1619 39.6447 36.1619 40.0017C36.1619 41.1726 37.1612 40.6858 39.5234 38.3642L41.8498 36.0784L38.7305 34.44C37.0144 33.5392 35.3155 32.5611 34.9544 32.2666C34.4676 31.8696 34.0792 31.9677 33.4552 32.6454ZM62.9196 33.4862C61.4068 34.4271 59.888 35.1975 59.5445 35.1975C58.2481 35.1975 58.3879 36.1894 59.9279 37.9131C62.7108 41.0283 63.1839 41.0427 64.7058 38.0584C65.4382 36.6212 66.3951 35.0472 66.8314 34.5604C67.5568 33.7509 67.5411 33.5942 66.6478 32.7247C65.6844 31.7878 65.6329 31.7982 62.9196 33.4862ZM68.0466 37.8789C65.5804 41.9633 65.5704 42.3871 67.9179 43.3102C69.0317 43.7484 70.7972 44.2392 71.8424 44.4008L73.7415 44.6958L74.6485 41.6227C75.1473 39.9327 75.4878 38.5006 75.4051 38.4406C75.3224 38.3801 73.9756 37.6613 72.4124 36.8428L69.5699 35.3546L68.0466 37.8789ZM27.3345 36.9648C26.2248 37.6191 25.109 38.2264 24.8548 38.3147C24.6005 38.4029 24.82 39.8772 25.3426 41.592L26.2924 44.7087L28.2914 44.3949C29.3906 44.2219 31.1702 43.6994 32.2456 43.2329L34.2007 42.3857L32.5331 39.1634C31.6161 37.3911 30.525 35.9034 30.1089 35.8578C29.6927 35.8122 28.4443 36.3099 27.3345 36.9648ZM9.92686 40.1831C12.3834 42.2702 17.18 44.2372 21.1553 44.788C23.3798 45.0959 23.5725 44.4405 22.2298 41.1419C21.5568 39.4896 21.2325 39.1906 20.3947 39.4519C19.0655 39.8663 12.5721 39.8604 10.3829 39.4425L8.67084 39.1158L9.92686 40.1831ZM78.2874 39.7488C77.0889 42.9959 76.6273 44.5605 76.813 44.7434C76.9345 44.8624 78.3358 44.7622 79.9273 44.5208C83.0143 44.0523 88.0596 41.8979 90.1353 40.1613L91.3964 39.1064L89.6843 39.4375C87.4593 39.8688 80.9971 39.8648 79.6095 39.4321C78.9139 39.2149 78.4427 39.3279 78.2874 39.7488ZM1.91711 44.8941C-2.50316 48.5492 1.37737 55.7215 6.89577 54.097C9.25395 53.4025 10.4 52.1601 10.7748 49.8916C11.6106 44.8287 5.8955 41.6044 1.91711 44.8941ZM91.9008 44.2006C89.2056 45.657 88.2245 49.5749 89.9492 51.9946C91.0417 53.5279 93.7414 54.5907 95.6108 54.2234C97.4091 53.8699 99.4646 51.829 99.9151 49.9496C100.325 48.2393 99.1988 45.5044 97.6426 44.4336C96.3039 43.5115 93.3934 43.3935 91.9008 44.2006ZM30.236 46.7893C27.1106 47.6866 26.5799 47.9994 26.5789 48.9448C26.5784 49.7509 26.9537 50.1291 27.9651 50.3403C28.7282 50.4994 30.5316 51.0309 31.9727 51.5216C34.9569 52.5379 35.1531 52.3867 35.1531 49.0781C35.1531 47.0461 34.746 45.5663 34.2164 45.6739C34.0378 45.7101 32.2471 46.2118 30.236 46.7893ZM64.9141 48.7113C64.9141 50.4583 65.0362 52.0075 65.1855 52.1537C65.3343 52.3004 66.6397 52.0174 68.0859 51.5251C69.5316 51.0323 71.3395 50.4994 72.1021 50.3403C73.1191 50.1281 73.4893 49.7518 73.4893 48.9304C73.4893 47.7962 73.3657 47.7456 65.5446 45.7002C65.0881 45.5807 64.9141 46.413 64.9141 48.7113ZM16.7906 54.0321C14.1645 54.856 8.11345 58.3623 8.55987 58.8011C8.65218 58.8918 9.62269 58.7222 10.7168 58.4243C11.8351 58.1194 14.6266 57.989 17.0912 58.1259L21.4761 58.3693L22.2615 56.4404C22.6933 55.3795 23.0469 54.1813 23.0469 53.7777C23.0469 52.763 20.5036 52.8666 16.7906 54.0321ZM25.3007 56.2193L24.2883 59.3945L27.0727 60.788C28.6037 61.5544 30.0589 62.1889 30.3066 62.1984C30.9245 62.2217 34.2139 56.0348 33.8724 55.4915C33.6317 55.1093 27.5328 53.044 26.6445 53.044C26.4619 53.044 25.8571 54.4728 25.3007 56.2193ZM70.8249 53.5854C69.7752 53.8278 68.2499 54.3657 67.4342 54.7801C66.0914 55.4628 66.0011 55.6611 66.4728 56.8915C67.2682 58.9642 69.4877 62.5399 69.8706 62.3649C70.0577 62.2797 71.4247 61.5822 72.9087 60.8157C75.2286 59.6175 75.5585 59.2705 75.2619 58.34C75.0722 57.7446 74.6712 56.31 74.3705 55.1509C73.7894 52.9127 73.7698 52.9037 70.8249 53.5854ZM76.9845 54.3409C78.2223 58.3881 77.7401 58.1264 84.1185 58.2116C87.2888 58.2538 90.3371 58.4674 90.8919 58.6865C91.697 59.0048 91.646 58.869 90.6397 58.0133C88.4127 56.1201 82.4489 53.5789 79.4319 53.2374L76.5476 52.9112L76.9845 54.3409ZM34.6683 60.8103C32.7747 64.2606 32.6552 64.6825 33.373 65.3874C34.0126 66.0165 34.3294 66.0488 35.0366 65.557C35.5168 65.2229 37.2449 64.2606 38.8768 63.4184L41.8443 61.887L39.4003 59.4485C38.0561 58.107 36.911 57.01 36.855 57.01C36.7995 57.01 35.8154 58.7203 34.6683 60.8103ZM60.6694 59.277C58.2991 61.6064 57.8547 62.4631 59.0169 62.4631C59.3801 62.4631 61.0109 63.2523 62.6407 64.217C65.4851 65.9 65.6405 65.9352 66.4965 65.0845C67.35 64.2363 67.3136 64.0822 65.6465 61.4944C64.6891 60.0077 63.9053 58.515 63.9053 58.1774C63.9053 56.776 62.849 57.1349 60.6694 59.277ZM10.6885 61.3383C10.1337 61.4741 8.50892 62.0144 7.07837 62.5384C4.85739 63.3519 4.3222 63.8145 3.4213 65.6983C2.84071 66.9123 2.36554 67.995 2.36554 68.1051C2.36554 68.4511 6.37975 69.8992 7.33966 69.8992C10.0177 69.8992 19.516 63.3505 19.516 61.5038C19.516 60.9694 12.7143 60.8415 10.6885 61.3383ZM80.5512 61.5628C80.5512 62.7035 85.717 67.0234 88.7885 68.4511C92.3875 70.1247 92.9384 70.1773 95.6597 69.107L97.6739 68.3153L96.9117 66.5227C95.7768 63.8521 94.9586 63.1898 91.3661 62.0308C87.6737 60.8395 80.5512 60.5312 80.5512 61.5628ZM20.7119 64.6215C19.5669 66.079 17.4675 68.0119 16.0465 68.9166C14.6261 69.8208 13.5385 70.6348 13.6303 70.7246C13.7216 70.8143 15.1401 70.6448 16.7825 70.3473C20.317 69.7073 24.134 68.0178 26.5653 66.0175L28.3176 64.5754L25.6992 63.2716C24.2591 62.5543 23.0161 61.9683 22.9375 61.9693C22.8588 61.9703 21.8575 63.1636 20.7119 64.6215ZM74.3186 63.2657L71.8691 64.5184L73.0469 65.7503C74.6394 67.4165 79.6816 69.7098 83.0734 70.3111C84.5992 70.5818 85.9143 70.7389 85.995 70.6606C86.0762 70.5823 85.0068 69.7162 83.6181 68.7357C82.23 67.7556 80.234 65.844 79.1832 64.4887C78.1325 63.1328 77.159 62.0214 77.0203 62.0189C76.8816 62.0159 75.6659 62.5771 74.3186 63.2657ZM47.7057 63.8031L46.3866 64.0033L47.2946 66.5792C47.7945 67.9965 48.3352 69.7693 48.4971 70.5188C48.7186 71.5435 49.0903 71.8821 49.9927 71.8821C51.0268 71.8821 51.281 71.5192 51.8162 69.2795C52.1587 67.8483 52.7403 66.0914 53.1081 65.3755C53.7633 64.102 53.7371 64.0673 51.9055 63.7698C50.876 63.6023 49.8066 63.4962 49.5292 63.5344C49.2517 63.572 48.431 63.693 47.7057 63.8031ZM39.0477 66.5227C37.4442 67.3773 36.2008 68.2082 36.284 68.3683C36.3672 68.5284 37.078 69.8932 37.8624 71.4008L39.2894 74.1417L42.5358 73.1358L45.7828 72.13L45.4726 70.4321C44.9424 67.5275 43.6758 64.9408 42.7906 64.9552C42.3356 64.9621 40.6508 65.6675 39.0477 66.5227ZM55.5702 66.6283C55.1762 67.5558 54.7146 69.1734 54.5447 70.2224L54.2365 72.13L57.4844 73.1234L60.7324 74.1169L62.2477 71.2778C63.9723 68.0461 63.9184 67.9192 60.0161 65.9913C57.1213 64.5606 56.406 64.6632 55.5702 66.6283ZM32.0872 72.483C31.2145 73.6519 30.0856 75.5432 29.5792 76.6848C28.7187 78.6242 27.4062 84.2632 27.7391 84.5904C27.8213 84.6712 28.8463 83.4452 30.0165 81.8653C31.1868 80.2859 33.1621 78.2444 34.4055 77.3288C35.6489 76.4132 36.6664 75.5912 36.6664 75.5025C36.6664 75.0291 34.4676 70.8391 34.1029 70.6175C33.8668 70.4742 32.9599 71.3135 32.0872 72.483ZM65.2763 71.4176C62.9463 74.9646 62.9373 74.926 67.0372 78.9003C69.1023 80.9021 71.1452 83.0982 71.5765 83.7798C72.3145 84.9463 72.3332 84.8437 71.8963 82.0448C71.3894 78.7982 69.2491 73.9612 67.3036 71.6655L66.0697 70.21L65.2763 71.4176ZM15.5941 75.3543C12.6069 77.1444 12.1791 81.256 14.7199 83.7531C15.7545 84.7698 16.5 85.0192 18.5071 85.0192C20.5142 85.0192 21.2597 84.7698 22.2943 83.7531C23.7945 82.2792 24.364 79.6503 23.6048 77.707C22.9824 76.1142 20.314 74.3643 18.5071 74.3643C17.8135 74.3643 16.5025 74.8099 15.5941 75.3543ZM79.2337 74.8466C77.4546 75.5531 76.0114 77.7908 76.0114 79.8427C76.0114 85.5546 84.1927 87.2009 86.4293 81.9397C88.3567 77.4066 83.8855 72.9995 79.2337 74.8466ZM42.4531 76.1395L40.4218 76.8484L40.4354 81.6774C40.4435 84.3336 40.2841 87.2872 40.0823 88.2415L39.7146 89.9766L41.011 88.4894C43.0635 86.1346 45.2819 81.1133 45.5977 78.1086C45.923 75.0097 45.8398 74.9577 42.4531 76.1395ZM54.1467 77.2113C54.7222 81.2248 57.3942 87.2322 59.3952 89.0119C60.288 89.8056 60.3032 89.7644 59.7892 87.9356C59.4956 86.8901 59.3468 83.9712 59.4593 81.4489L59.663 76.8633L57.4068 76.1078C54.071 74.9909 53.8395 75.0692 54.1467 77.2113ZM34.2229 81.3656C31.6746 83.8701 28.5956 89.0263 28.5956 90.7891C28.5956 91.7037 30.0645 95.6776 30.4024 95.6776C30.5033 95.6776 31.603 95.1923 32.8459 94.5989C36.0247 93.0809 37.2802 90.1759 37.5743 83.6559C37.7075 80.7053 37.6011 78.8225 37.3014 78.8225C37.0316 78.8225 35.6459 79.9666 34.2229 81.3656ZM62.1983 80.8054C61.6989 83.8755 62.5312 88.3625 64.2997 92.136C64.8495 93.3089 65.7373 94.0763 67.3086 94.7386C68.5343 95.2552 69.6133 95.6776 69.7061 95.6776C69.7989 95.6776 70.258 94.692 70.7261 93.4874C71.6759 91.0424 71.3137 89.0986 69.2854 85.7628C68.1379 83.8745 63.4805 78.8225 62.8878 78.8225C62.6861 78.8225 62.3758 79.7148 62.1983 80.8054ZM46.9117 88.2177C43.4065 90.3181 43.8246 95.6597 47.6335 97.4365C52.4286 99.6722 56.9972 94.8591 54.7273 89.9627C53.5121 87.3417 49.7683 86.5059 46.9117 88.2177Z" fill="black"/>
</svg>
